<svg width="32" height="32" viewBox="0 0 32 32" fill="none" xmlns="http://www.w3.org/2000/svg">
<path d="M1.56371 1.22983H4.13374C5.72891 1.22983 6.98436 2.60345 6.85143 4.18386L5.62551 18.8949C5.41873 21.3025 7.32406 23.3703 9.74637 23.3703H25.4766C27.6035 23.3703 29.4645 21.6274 29.627 19.5153L30.4246 8.43767C30.6019 5.98582 28.7408 3.99185 26.2742 3.99185H7.20593" stroke="#221F8B" stroke-width="2.21552" stroke-miterlimit="10" stroke-linecap="round" stroke-linejoin="round"/>
<path d="M22.6112 30.7701C23.6309 30.7701 24.4575 29.9436 24.4575 28.9239C24.4575 27.9041 23.6309 27.0776 22.6112 27.0776C21.5915 27.0776 20.7649 27.9041 20.7649 28.9239C20.7649 29.9436 21.5915 30.7701 22.6112 30.7701Z" stroke="#221F8B" stroke-width="2.21552" stroke-miterlimit="10" stroke-linecap="round" stroke-linejoin="round"/>
<path d="M10.7951 30.7701C11.8147 30.7701 12.6413 29.9436 12.6413 28.9239C12.6413 27.9041 11.8147 27.0776 10.7951 27.0776C9.77539 27.0776 8.94879 27.9041 8.94879 28.9239C8.94879 29.9436 9.77539 30.7701 10.7951 30.7701Z" stroke="#221F8B" stroke-width="2.21552" stroke-miterlimit="10" stroke-linecap="round" stroke-linejoin="round"/>
<path d="M11.9028 10.0919H29.627" stroke="#221F8B" stroke-width="2.21552" stroke-miterlimit="10" stroke-linecap="round" stroke-linejoin="round"/>
</svg>
