<?xml version="1.0" ?>
<!-- Uploaded to: SVG Repo, www.svgrepo.com, Generator: SVG Repo Mixer Tools -->
<svg width="800px" height="800px" viewBox="0 0 8.4666669 8.4666669" id="svg8" version="1.1" xmlns="http://www.w3.org/2000/svg" xmlns:cc="http://creativecommons.org/ns#" xmlns:dc="http://purl.org/dc/elements/1.1/" xmlns:inkscape="http://www.inkscape.org/namespaces/inkscape" xmlns:rdf="http://www.w3.org/1999/02/22-rdf-syntax-ns#" xmlns:sodipodi="http://sodipodi.sourceforge.net/DTD/sodipodi-0.dtd" xmlns:svg="http://www.w3.org/2000/svg">
<defs id="defs2"/>
<g id="layer1" transform="translate(0,-288.53332)">
<path d="M 6,3 C 5.4477381,3.0000552 5.0000552,3.4477381 5,4 V 7 H 2 C 1.4477381,7.0000552 1.0000552,7.4477381 1,8 v 16 c 5.52e-5,0.552262 0.4477381,0.999945 1,1 h 2 v 3 c -3.501e-4,0.838869 0.970049,1.305407 1.625,0.78125 L 10.351562,25 H 26 c 0.552262,-5.5e-5 0.999945,-0.447738 1,-1 v -1 h 3 c 0.552262,-5.5e-5 0.999945,-0.447738 1,-1 V 4 C 30.999945,3.4477381 30.552262,3.0000552 30,3 Z M 7,5 H 29 V 21 H 27 V 8 C 26.999945,7.4477381 26.552262,7.0000552 26,7 H 7 Z M 3,9 H 25 V 23 H 10 c -0.2271289,-1.7e-4 -0.4475506,0.07698 -0.625,0.21875 L 6,25.917969 V 24 C 5.9999448,23.447738 5.5522619,23.000055 5,23 H 3 Z" id="rect886" style="color:#000000;font-style:normal;font-variant:normal;font-weight:normal;font-stretch:normal;font-size:medium;line-height:normal;font-family:sans-serif;font-variant-ligatures:normal;font-variant-position:normal;font-variant-caps:normal;font-variant-numeric:normal;font-variant-alternates:normal;font-feature-settings:normal;text-indent:0;text-align:start;text-decoration:none;text-decoration-line:none;text-decoration-style:solid;text-decoration-color:#000000;letter-spacing:normal;word-spacing:normal;text-transform:none;writing-mode:lr-tb;direction:ltr;text-orientation:mixed;dominant-baseline:auto;baseline-shift:baseline;text-anchor:start;white-space:normal;shape-padding:0;clip-rule:nonzero;display:inline;overflow:visible;visibility:visible;opacity:1;isolation:auto;mix-blend-mode:normal;color-interpolation:sRGB;color-interpolation-filters:linearRGB;solid-color:#000000;solid-opacity:1;vector-effect:none;fill:#000000;fill-opacity:1;fill-rule:nonzero;stroke:none;stroke-width:1.99999988;stroke-linecap:round;stroke-linejoin:round;stroke-miterlimit:4;stroke-dasharray:none;stroke-dashoffset:0;stroke-opacity:1;paint-order:stroke fill markers;color-rendering:auto;image-rendering:auto;shape-rendering:auto;text-rendering:auto;enable-background:accumulate" transform="matrix(0.26458333,0,0,0.26458333,0,288.53332)"/>
</g>
</svg>